<mxfile host="Electron" modified="2024-02-04T06:45:00.044Z" agent="Mozilla/5.0 (Windows NT 10.0; Win64; x64) AppleWebKit/537.36 (KHTML, like Gecko) draw.io/23.0.2 Chrome/120.0.6099.109 Electron/28.1.0 Safari/537.36" etag="ja0D63rd33YqtNBdNMtA" version="23.0.2" type="device">
  <diagram name="ページ1" id="LE8fIzdrHe0wcv1LTvfw">
    <mxGraphModel dx="1732" dy="1036" grid="1" gridSize="10" guides="1" tooltips="1" connect="1" arrows="1" fold="1" page="1" pageScale="1" pageWidth="1600" pageHeight="1200" math="0" shadow="1">
      <root>
        <mxCell id="0" />
        <mxCell id="cFaB45KztUIKXS-_cTrr-4" value="背景" style="locked=1;" parent="0" visible="0" />
        <mxCell id="cFaB45KztUIKXS-_cTrr-5" value="" style="rounded=0;whiteSpace=wrap;html=1;strokeWidth=3;" parent="cFaB45KztUIKXS-_cTrr-4" vertex="1">
          <mxGeometry x="1" y="1" width="1595" height="1180" as="geometry" />
        </mxCell>
        <mxCell id="cFaB45KztUIKXS-_cTrr-6" value="" style="rounded=0;whiteSpace=wrap;html=1;fillColor=#B3B3B3;fontColor=#333333;strokeColor=#666666;" parent="cFaB45KztUIKXS-_cTrr-4" vertex="1">
          <mxGeometry width="1595" height="60" as="geometry" />
        </mxCell>
        <mxCell id="cFaB45KztUIKXS-_cTrr-7" value="&lt;font style=&quot;font-size: 48px;&quot;&gt;×&lt;/font&gt;" style="rounded=0;whiteSpace=wrap;html=1;" parent="cFaB45KztUIKXS-_cTrr-4" vertex="1">
          <mxGeometry x="1550" y="10" width="40" height="40" as="geometry" />
        </mxCell>
        <mxCell id="cFaB45KztUIKXS-_cTrr-8" value="" style="rounded=0;whiteSpace=wrap;html=1;" parent="cFaB45KztUIKXS-_cTrr-4" vertex="1">
          <mxGeometry x="830" y="670" width="120" height="60" as="geometry" />
        </mxCell>
        <mxCell id="cFaB45KztUIKXS-_cTrr-9" value="ウインドウ" style="locked=1;" parent="0" />
        <mxCell id="cFaB45KztUIKXS-_cTrr-10" value="" style="rounded=0;whiteSpace=wrap;html=1;strokeWidth=3;" parent="cFaB45KztUIKXS-_cTrr-9" vertex="1">
          <mxGeometry x="1" y="1" width="1595" height="1729" as="geometry" />
        </mxCell>
        <mxCell id="cFaB45KztUIKXS-_cTrr-11" value="" style="rounded=0;whiteSpace=wrap;html=1;fillColor=#B3B3B3;fontColor=#333333;strokeColor=#666666;" parent="cFaB45KztUIKXS-_cTrr-9" vertex="1">
          <mxGeometry width="1595" height="60" as="geometry" />
        </mxCell>
        <mxCell id="cFaB45KztUIKXS-_cTrr-12" value="&lt;font style=&quot;font-size: 48px;&quot;&gt;×&lt;/font&gt;" style="rounded=0;whiteSpace=wrap;html=1;" parent="cFaB45KztUIKXS-_cTrr-9" vertex="1">
          <mxGeometry x="1550" y="10" width="40" height="40" as="geometry" />
        </mxCell>
        <mxCell id="cFaB45KztUIKXS-_cTrr-14" value="画面" style="" parent="0" />
        <mxCell id="bkQitDRXs5g6DSLi2g_j-0" value="&lt;font style=&quot;font-size: 30px;&quot;&gt;書証を参照&lt;/font&gt;" style="rounded=1;whiteSpace=wrap;html=1;" parent="cFaB45KztUIKXS-_cTrr-14" vertex="1">
          <mxGeometry x="1158" y="433" width="210" height="60" as="geometry" />
        </mxCell>
        <mxCell id="bkQitDRXs5g6DSLi2g_j-1" value="&lt;div style=&quot;&quot;&gt;&lt;span style=&quot;background-color: initial;&quot;&gt;&lt;font style=&quot;font-size: 30px;&quot;&gt;123,456&lt;/font&gt;&lt;/span&gt;&lt;/div&gt;" style="rounded=0;whiteSpace=wrap;html=1;align=right;fillColor=#CCCCCC;" parent="cFaB45KztUIKXS-_cTrr-14" vertex="1">
          <mxGeometry x="371" y="509" width="220" height="48" as="geometry" />
        </mxCell>
        <mxCell id="bkQitDRXs5g6DSLi2g_j-2" value="&lt;div style=&quot;&quot;&gt;&lt;span style=&quot;background-color: initial;&quot;&gt;&lt;font style=&quot;font-size: 30px;&quot;&gt;*金額&lt;/font&gt;&lt;/span&gt;&lt;/div&gt;" style="rounded=0;whiteSpace=wrap;html=1;align=right;dashed=1;dashPattern=8 8;verticalAlign=bottom;" parent="cFaB45KztUIKXS-_cTrr-14" vertex="1">
          <mxGeometry x="70" y="506" width="230" height="48" as="geometry" />
        </mxCell>
        <mxCell id="bkQitDRXs5g6DSLi2g_j-4" value="&lt;div style=&quot;&quot;&gt;&lt;font style=&quot;font-size: 30px;&quot;&gt;*収支報告&lt;/font&gt;&lt;/div&gt;" style="rounded=0;whiteSpace=wrap;html=1;align=right;dashed=1;dashPattern=8 8;verticalAlign=bottom;" parent="cFaB45KztUIKXS-_cTrr-14" vertex="1">
          <mxGeometry x="73" y="370" width="230" height="46" as="geometry" />
        </mxCell>
        <mxCell id="bkQitDRXs5g6DSLi2g_j-5" value="&lt;div style=&quot;&quot;&gt;&lt;span style=&quot;background-color: initial;&quot;&gt;&lt;font style=&quot;font-size: 30px;&quot;&gt;スーパー地元&lt;/font&gt;&lt;/span&gt;&lt;/div&gt;" style="rounded=0;whiteSpace=wrap;html=1;align=left;fillColor=#CCCCCC;" parent="cFaB45KztUIKXS-_cTrr-14" vertex="1">
          <mxGeometry x="368" y="784" width="220" height="48" as="geometry" />
        </mxCell>
        <mxCell id="bkQitDRXs5g6DSLi2g_j-6" value="&lt;div style=&quot;font-size: 30px;&quot;&gt;&lt;span style=&quot;background-color: initial;&quot;&gt;*&lt;/span&gt;支出を受けた&lt;/div&gt;&lt;div style=&quot;font-size: 30px;&quot;&gt;&lt;span style=&quot;background-color: initial;&quot;&gt;もの氏名&lt;/span&gt;&lt;/div&gt;" style="rounded=0;whiteSpace=wrap;html=1;align=right;dashed=1;dashPattern=8 8;verticalAlign=top;" parent="cFaB45KztUIKXS-_cTrr-14" vertex="1">
          <mxGeometry x="70" y="770" width="230" height="87" as="geometry" />
        </mxCell>
        <mxCell id="bkQitDRXs5g6DSLi2g_j-8" value="&lt;div style=&quot;&quot;&gt;&lt;span style=&quot;font-size: 36px;&quot;&gt;このデータは&lt;/span&gt;&lt;/div&gt;" style="rounded=0;whiteSpace=wrap;html=1;align=left;dashed=1;dashPattern=8 8;" parent="cFaB45KztUIKXS-_cTrr-14" vertex="1">
          <mxGeometry x="56" y="142" width="230" height="70" as="geometry" />
        </mxCell>
        <mxCell id="bkQitDRXs5g6DSLi2g_j-9" value="&lt;font style=&quot;font-size: 60px;&quot; color=&quot;#cc0000&quot;&gt;&lt;b&gt;支出&lt;/b&gt;&lt;/font&gt;" style="rounded=0;whiteSpace=wrap;html=1;align=center;verticalAlign=middle;" parent="cFaB45KztUIKXS-_cTrr-14" vertex="1">
          <mxGeometry x="296" y="133.5" width="220" height="85" as="geometry" />
        </mxCell>
        <mxCell id="bkQitDRXs5g6DSLi2g_j-10" value="&lt;div style=&quot;&quot;&gt;&lt;span style=&quot;font-size: 36px;&quot;&gt;です(この&lt;u&gt;団体から&lt;/u&gt;&lt;/span&gt;&lt;u style=&quot;font-size: 36px; background-color: initial;&quot;&gt;出金&lt;/u&gt;&lt;span style=&quot;font-size: 36px; background-color: initial;&quot;&gt;)&lt;/span&gt;&lt;/div&gt;" style="rounded=0;whiteSpace=wrap;html=1;align=left;dashed=1;dashPattern=8 8;" parent="cFaB45KztUIKXS-_cTrr-14" vertex="1">
          <mxGeometry x="526" y="148" width="474" height="70" as="geometry" />
        </mxCell>
        <mxCell id="bkQitDRXs5g6DSLi2g_j-16" value="&lt;font style=&quot;font-size: 30px;&quot;&gt;*書証タイプ&lt;/font&gt;" style="rounded=0;whiteSpace=wrap;html=1;align=right;dashed=1;dashPattern=8 8;verticalAlign=bottom;" parent="cFaB45KztUIKXS-_cTrr-14" vertex="1">
          <mxGeometry x="71" y="310" width="230" height="46" as="geometry" />
        </mxCell>
        <mxCell id="bkQitDRXs5g6DSLi2g_j-17" value="&lt;div style=&quot;&quot;&gt;&lt;font style=&quot;font-size: 30px;&quot;&gt;▼ 口座振込&lt;/font&gt;&lt;/div&gt;" style="rounded=0;whiteSpace=wrap;html=1;align=left;fillColor=#CCCCCC;" parent="cFaB45KztUIKXS-_cTrr-14" vertex="1">
          <mxGeometry x="376" y="313" width="220" height="48" as="geometry" />
        </mxCell>
        <mxCell id="bkQitDRXs5g6DSLi2g_j-18" value="&lt;div style=&quot;&quot;&gt;&lt;div style=&quot;font-family: &amp;quot;MS GothIc&amp;quot;, Consolas, &amp;quot;Courier New&amp;quot;, monospace, Consolas, &amp;quot;Courier New&amp;quot;, monospace; line-height: 19px;&quot;&gt;&lt;font style=&quot;font-size: 30px; background-color: rgb(204, 204, 204);&quot;&gt;組織活動費&lt;/font&gt;&lt;/div&gt;&lt;/div&gt;" style="rounded=0;whiteSpace=wrap;html=1;align=left;fillColor=#CCCCCC;" parent="cFaB45KztUIKXS-_cTrr-14" vertex="1">
          <mxGeometry x="369" y="642" width="220" height="48" as="geometry" />
        </mxCell>
        <mxCell id="bkQitDRXs5g6DSLi2g_j-19" value="&lt;div style=&quot;font-size: 30px;&quot;&gt;&lt;span style=&quot;background-color: initial;&quot;&gt;&lt;font style=&quot;font-size: 30px;&quot;&gt;*&lt;/font&gt;&lt;/span&gt;支出の目的&lt;/div&gt;" style="rounded=0;whiteSpace=wrap;html=1;align=right;dashed=1;dashPattern=8 8;verticalAlign=bottom;" parent="cFaB45KztUIKXS-_cTrr-14" vertex="1">
          <mxGeometry x="70" y="643" width="230" height="48" as="geometry" />
        </mxCell>
        <mxCell id="bkQitDRXs5g6DSLi2g_j-20" value="&lt;div style=&quot;&quot;&gt;&lt;span style=&quot;background-color: initial;&quot;&gt;&lt;font style=&quot;font-size: 30px;&quot;&gt;東京都千代田区霞が関&lt;/font&gt;&lt;/span&gt;&lt;/div&gt;" style="rounded=0;whiteSpace=wrap;html=1;align=left;verticalAlign=top;fillColor=#CCCCCC;" parent="cFaB45KztUIKXS-_cTrr-14" vertex="1">
          <mxGeometry x="367" y="854" width="343" height="144" as="geometry" />
        </mxCell>
        <mxCell id="bkQitDRXs5g6DSLi2g_j-21" value="&lt;div style=&quot;&quot;&gt;&lt;font style=&quot;font-size: 30px;&quot;&gt;*&lt;/font&gt;&lt;font style=&quot;font-size: 30px;&quot;&gt;支出を受けた&lt;/font&gt;&lt;/div&gt;&lt;div style=&quot;&quot;&gt;&lt;font style=&quot;font-size: 30px;&quot;&gt;ものの住所&lt;/font&gt;&lt;/div&gt;" style="rounded=0;whiteSpace=wrap;html=1;align=right;dashed=1;dashPattern=8 8;verticalAlign=top;" parent="cFaB45KztUIKXS-_cTrr-14" vertex="1">
          <mxGeometry x="70" y="851" width="230" height="114" as="geometry" />
        </mxCell>
        <mxCell id="bkQitDRXs5g6DSLi2g_j-28" value="&lt;font style=&quot;font-size: 30px;&quot;&gt;*仕訳項目&lt;/font&gt;" style="rounded=0;whiteSpace=wrap;html=1;align=right;dashed=1;dashPattern=8 8;verticalAlign=bottom;" parent="cFaB45KztUIKXS-_cTrr-14" vertex="1">
          <mxGeometry x="71" y="434" width="230" height="46" as="geometry" />
        </mxCell>
        <mxCell id="bkQitDRXs5g6DSLi2g_j-29" value="&lt;div style=&quot;&quot;&gt;&lt;font style=&quot;font-size: 30px;&quot;&gt;▼ (14)&lt;/font&gt;&lt;font style=&quot;font-size: 30px;&quot;&gt;経常経費の内訳&lt;/font&gt;&lt;/div&gt;" style="rounded=0;whiteSpace=wrap;html=1;align=left;" parent="cFaB45KztUIKXS-_cTrr-14" vertex="1">
          <mxGeometry x="373" y="440" width="347" height="48" as="geometry" />
        </mxCell>
        <mxCell id="bkQitDRXs5g6DSLi2g_j-30" value="&lt;div style=&quot;&quot;&gt;&lt;font style=&quot;font-size: 30px;&quot;&gt;▼ 3.備品・消耗品費&lt;/font&gt;&lt;/div&gt;" style="rounded=0;whiteSpace=wrap;html=1;align=left;" parent="cFaB45KztUIKXS-_cTrr-14" vertex="1">
          <mxGeometry x="768" y="440" width="346" height="48" as="geometry" />
        </mxCell>
        <mxCell id="bkQitDRXs5g6DSLi2g_j-32" value="&lt;div style=&quot;&quot;&gt;&lt;span style=&quot;background-color: initial;&quot;&gt;&lt;font style=&quot;font-size: 30px;&quot;&gt;2022-12-01&lt;/font&gt;&lt;/span&gt;&lt;/div&gt;" style="rounded=0;whiteSpace=wrap;html=1;align=left;fillColor=#CCCCCC;" parent="cFaB45KztUIKXS-_cTrr-14" vertex="1">
          <mxGeometry x="371" y="579" width="220" height="41" as="geometry" />
        </mxCell>
        <mxCell id="bkQitDRXs5g6DSLi2g_j-33" value="&lt;div style=&quot;&quot;&gt;&lt;font style=&quot;font-size: 30px;&quot;&gt;*(発生)年月日&lt;/font&gt;&lt;/div&gt;" style="rounded=0;whiteSpace=wrap;html=1;align=right;dashed=1;dashPattern=8 8;verticalAlign=bottom;" parent="cFaB45KztUIKXS-_cTrr-14" vertex="1">
          <mxGeometry x="68" y="576" width="230" height="48" as="geometry" />
        </mxCell>
        <mxCell id="bkQitDRXs5g6DSLi2g_j-34" value="&lt;div style=&quot;&quot;&gt;&lt;br&gt;&lt;/div&gt;" style="rounded=0;whiteSpace=wrap;html=1;align=left;verticalAlign=top;fillColor=#CCCCCC;" parent="cFaB45KztUIKXS-_cTrr-14" vertex="1">
          <mxGeometry x="370" y="1033" width="340" height="48" as="geometry" />
        </mxCell>
        <mxCell id="bkQitDRXs5g6DSLi2g_j-35" value="&lt;font style=&quot;font-size: 30px;&quot;&gt;*備考&lt;/font&gt;" style="rounded=0;whiteSpace=wrap;html=1;align=right;dashed=1;dashPattern=8 8;verticalAlign=bottom;" parent="cFaB45KztUIKXS-_cTrr-14" vertex="1">
          <mxGeometry x="70" y="1030" width="230" height="48" as="geometry" />
        </mxCell>
        <mxCell id="bkQitDRXs5g6DSLi2g_j-36" value="&lt;font style=&quot;font-size: 30px;&quot;&gt;☑交付金に&lt;br&gt;係る支出&lt;/font&gt;" style="text;html=1;strokeColor=none;fillColor=none;align=left;verticalAlign=middle;whiteSpace=wrap;rounded=0;" parent="cFaB45KztUIKXS-_cTrr-14" vertex="1">
          <mxGeometry x="738" y="1030" width="202" height="60" as="geometry" />
        </mxCell>
        <mxCell id="bkQitDRXs5g6DSLi2g_j-45" value="&lt;font style=&quot;font-size: 30px;&quot;&gt;*&lt;/font&gt;&lt;font style=&quot;font-size: 30px;&quot;&gt;領収書を徴し&lt;br&gt;難たかったもの&lt;/font&gt;" style="rounded=0;whiteSpace=wrap;html=1;align=right;dashed=1;dashPattern=8 8;verticalAlign=bottom;" parent="cFaB45KztUIKXS-_cTrr-14" vertex="1">
          <mxGeometry x="30" y="1100" width="271" height="70" as="geometry" />
        </mxCell>
        <mxCell id="bkQitDRXs5g6DSLi2g_j-117" value="&lt;span style=&quot;font-size: 36px;&quot;&gt;項目詳細入力&lt;/span&gt;" style="rounded=0;whiteSpace=wrap;html=1;align=left;dashed=1;dashPattern=8 8;" parent="cFaB45KztUIKXS-_cTrr-14" vertex="1">
          <mxGeometry x="26" y="64" width="230" height="70" as="geometry" />
        </mxCell>
        <mxCell id="bkQitDRXs5g6DSLi2g_j-121" value="" style="rounded=0;whiteSpace=wrap;html=1;fillColor=#B3B3B3;fontColor=#333333;strokeColor=#666666;" parent="cFaB45KztUIKXS-_cTrr-14" vertex="1">
          <mxGeometry y="10" width="1595" height="60" as="geometry" />
        </mxCell>
        <mxCell id="bkQitDRXs5g6DSLi2g_j-122" value="&lt;font style=&quot;font-size: 48px;&quot;&gt;×&lt;/font&gt;" style="rounded=0;whiteSpace=wrap;html=1;" parent="cFaB45KztUIKXS-_cTrr-14" vertex="1">
          <mxGeometry x="1550" y="20" width="40" height="40" as="geometry" />
        </mxCell>
        <mxCell id="_eCC-YQtC-nGNel2I9ut-0" value="&lt;span style=&quot;font-size: 30px;&quot;&gt;報告除外で処理されていますが、××という条文上の理由で報告するのが適当と思われます。&lt;/span&gt;" style="rounded=0;whiteSpace=wrap;html=1;align=left;verticalAlign=top;fillColor=#FFFFFF;" parent="cFaB45KztUIKXS-_cTrr-14" vertex="1">
          <mxGeometry x="365" y="1177" width="665" height="144" as="geometry" />
        </mxCell>
        <mxCell id="_eCC-YQtC-nGNel2I9ut-1" value="&lt;span style=&quot;font-size: 30px;&quot;&gt;履歴&lt;/span&gt;" style="rounded=1;whiteSpace=wrap;html=1;" parent="cFaB45KztUIKXS-_cTrr-14" vertex="1">
          <mxGeometry x="1051" y="1173" width="120" height="48" as="geometry" />
        </mxCell>
        <mxCell id="iyJBz5RghbY5vBhRCDR4-0" value="&lt;span style=&quot;font-size: 30px;&quot;&gt;××信用金庫&lt;/span&gt;" style="rounded=0;whiteSpace=wrap;html=1;align=left;fillColor=#CCCCCC;" parent="cFaB45KztUIKXS-_cTrr-14" vertex="1">
          <mxGeometry x="657" y="312" width="493" height="48" as="geometry" />
        </mxCell>
        <mxCell id="VrOXvbfiMFAtaCKxzEez-1" value="&lt;div style=&quot;&quot;&gt;&lt;span style=&quot;font-size: 30px;&quot;&gt;摘要&lt;/span&gt;&lt;/div&gt;" style="rounded=0;whiteSpace=wrap;html=1;align=left;fillColor=#CCCCCC;" parent="cFaB45KztUIKXS-_cTrr-14" vertex="1">
          <mxGeometry x="369" y="712" width="220" height="48" as="geometry" />
        </mxCell>
        <mxCell id="VrOXvbfiMFAtaCKxzEez-2" value="&lt;div style=&quot;&quot;&gt;&lt;span style=&quot;background-color: initial;&quot;&gt;&lt;font style=&quot;font-size: 30px;&quot;&gt;*摘要&lt;/font&gt;&lt;/span&gt;&lt;/div&gt;" style="rounded=0;whiteSpace=wrap;html=1;align=right;dashed=1;dashPattern=8 8;verticalAlign=bottom;" parent="cFaB45KztUIKXS-_cTrr-14" vertex="1">
          <mxGeometry x="70" y="713" width="230" height="48" as="geometry" />
        </mxCell>
        <mxCell id="VrOXvbfiMFAtaCKxzEez-3" value="&lt;div style=&quot;&quot;&gt;&lt;font style=&quot;font-size: 30px;&quot;&gt;▼&amp;nbsp;&lt;/font&gt;&lt;font style=&quot;font-size: 30px;&quot;&gt;振込明細書に係る…&lt;/font&gt;&lt;/div&gt;" style="rounded=0;whiteSpace=wrap;html=1;align=left;" parent="cFaB45KztUIKXS-_cTrr-14" vertex="1">
          <mxGeometry x="368" y="1100" width="347" height="48" as="geometry" />
        </mxCell>
        <mxCell id="pnPEWoBBh-K_Q6-qWdNs-0" value="&lt;span style=&quot;font-size: 30px;&quot;&gt;保存&lt;/span&gt;" style="rounded=1;whiteSpace=wrap;html=1;strokeWidth=3;" parent="cFaB45KztUIKXS-_cTrr-14" vertex="1">
          <mxGeometry x="1350" y="1370" width="210" height="60" as="geometry" />
        </mxCell>
        <mxCell id="pnPEWoBBh-K_Q6-qWdNs-1" value="&lt;span style=&quot;font-size: 30px;&quot;&gt;キャンセル&lt;/span&gt;" style="rounded=1;whiteSpace=wrap;html=1;strokeWidth=3;" parent="cFaB45KztUIKXS-_cTrr-14" vertex="1">
          <mxGeometry x="1120" y="1370" width="210" height="60" as="geometry" />
        </mxCell>
        <mxCell id="N9MQjoM4U-8UI_U5psBh-0" value="&lt;font style=&quot;font-size: 30px;&quot;&gt;*意見付記&lt;/font&gt;" style="rounded=0;whiteSpace=wrap;html=1;align=right;dashed=1;dashPattern=8 8;verticalAlign=bottom;" parent="cFaB45KztUIKXS-_cTrr-14" vertex="1">
          <mxGeometry x="70" y="1190" width="230" height="48" as="geometry" />
        </mxCell>
        <mxCell id="N9MQjoM4U-8UI_U5psBh-2" value="&lt;font style=&quot;font-size: 84px;&quot;&gt;○&lt;/font&gt;" style="text;html=1;strokeColor=none;fillColor=none;align=center;verticalAlign=middle;whiteSpace=wrap;rounded=0;fontSize=60;" parent="cFaB45KztUIKXS-_cTrr-14" vertex="1">
          <mxGeometry x="359" y="382" width="60" height="30" as="geometry" />
        </mxCell>
        <mxCell id="N9MQjoM4U-8UI_U5psBh-3" value="&lt;font style=&quot;font-size: 48px;&quot;&gt;●&lt;/font&gt;" style="text;html=1;strokeColor=none;fillColor=none;align=center;verticalAlign=middle;whiteSpace=wrap;rounded=0;fontSize=48;" parent="cFaB45KztUIKXS-_cTrr-14" vertex="1">
          <mxGeometry x="359" y="384" width="60" height="30" as="geometry" />
        </mxCell>
        <mxCell id="N9MQjoM4U-8UI_U5psBh-4" value="&lt;font style=&quot;font-size: 30px;&quot;&gt;報告対象&lt;/font&gt;" style="text;html=1;strokeColor=none;fillColor=none;align=left;verticalAlign=middle;whiteSpace=wrap;rounded=0;" parent="cFaB45KztUIKXS-_cTrr-14" vertex="1">
          <mxGeometry x="414" y="371" width="275" height="60" as="geometry" />
        </mxCell>
        <mxCell id="N9MQjoM4U-8UI_U5psBh-5" value="&lt;font style=&quot;font-size: 84px;&quot;&gt;○&lt;/font&gt;" style="text;html=1;strokeColor=none;fillColor=none;align=center;verticalAlign=middle;whiteSpace=wrap;rounded=0;fontSize=60;" parent="cFaB45KztUIKXS-_cTrr-14" vertex="1">
          <mxGeometry x="589" y="382" width="60" height="30" as="geometry" />
        </mxCell>
        <mxCell id="N9MQjoM4U-8UI_U5psBh-6" value="&lt;font style=&quot;font-size: 30px;&quot;&gt;生活費(報告対象外)&lt;/font&gt;" style="text;html=1;strokeColor=none;fillColor=none;align=left;verticalAlign=middle;whiteSpace=wrap;rounded=0;" parent="cFaB45KztUIKXS-_cTrr-14" vertex="1">
          <mxGeometry x="645" y="372" width="275" height="60" as="geometry" />
        </mxCell>
        <mxCell id="N9MQjoM4U-8UI_U5psBh-8" value="&lt;font style=&quot;font-size: 84px;&quot;&gt;○&lt;/font&gt;" style="text;html=1;strokeColor=none;fillColor=none;align=center;verticalAlign=middle;whiteSpace=wrap;rounded=0;fontSize=60;" parent="cFaB45KztUIKXS-_cTrr-14" vertex="1">
          <mxGeometry x="942" y="382" width="60" height="30" as="geometry" />
        </mxCell>
        <mxCell id="N9MQjoM4U-8UI_U5psBh-9" value="&lt;font style=&quot;font-size: 30px;&quot;&gt;政治活動報告対象外(廃止予定)&lt;/font&gt;" style="text;html=1;strokeColor=none;fillColor=none;align=left;verticalAlign=middle;whiteSpace=wrap;rounded=0;" parent="cFaB45KztUIKXS-_cTrr-14" vertex="1">
          <mxGeometry x="998" y="372" width="511" height="60" as="geometry" />
        </mxCell>
        <mxCell id="em-xFZlTFC9FGeB90R3J-0" value="&lt;font style=&quot;font-size: 30px;&quot;&gt;*処理区分&lt;/font&gt;" style="rounded=0;whiteSpace=wrap;html=1;align=right;dashed=1;dashPattern=8 8;verticalAlign=bottom;" parent="cFaB45KztUIKXS-_cTrr-14" vertex="1">
          <mxGeometry x="55" y="1342" width="230" height="46" as="geometry" />
        </mxCell>
        <mxCell id="em-xFZlTFC9FGeB90R3J-1" value="&lt;font style=&quot;font-size: 30px;&quot;&gt;☑前例と異なる処理&lt;/font&gt;" style="text;html=1;strokeColor=none;fillColor=none;align=left;verticalAlign=middle;whiteSpace=wrap;rounded=0;" parent="cFaB45KztUIKXS-_cTrr-14" vertex="1">
          <mxGeometry x="352" y="1355" width="408" height="30" as="geometry" />
        </mxCell>
        <mxCell id="em-xFZlTFC9FGeB90R3J-2" value="&lt;span style=&quot;font-size: 30px;&quot;&gt;指示内容保全&lt;/span&gt;" style="rounded=1;whiteSpace=wrap;html=1;" parent="cFaB45KztUIKXS-_cTrr-14" vertex="1">
          <mxGeometry x="696" y="1345" width="264" height="48" as="geometry" />
        </mxCell>
        <mxCell id="J3ITothCYrzwsTWFN82D-0" value="&lt;font style=&quot;font-size: 30px;&quot;&gt;入力済項目編集&lt;/font&gt;" style="rounded=0;whiteSpace=wrap;html=1;align=right;dashed=1;dashPattern=8 8;verticalAlign=bottom;" vertex="1" parent="cFaB45KztUIKXS-_cTrr-14">
          <mxGeometry x="71" y="240" width="230" height="46" as="geometry" />
        </mxCell>
        <mxCell id="J3ITothCYrzwsTWFN82D-2" value="&lt;font style=&quot;font-size: 30px;&quot;&gt;&lt;br&gt;☑入力済項目を編集する&lt;/font&gt;" style="rounded=0;whiteSpace=wrap;html=1;align=left;dashed=1;dashPattern=8 8;verticalAlign=bottom;" vertex="1" parent="cFaB45KztUIKXS-_cTrr-14">
          <mxGeometry x="380" y="240" width="690" height="46" as="geometry" />
        </mxCell>
        <mxCell id="bkQitDRXs5g6DSLi2g_j-86" value="振番" style="" parent="0" visible="0" />
        <mxCell id="bkQitDRXs5g6DSLi2g_j-87" value="&lt;font size=&quot;1&quot; color=&quot;#cc0000&quot;&gt;&lt;b style=&quot;font-size: 36px;&quot;&gt;(1)&lt;/b&gt;&lt;/font&gt;" style="text;html=1;strokeColor=none;fillColor=none;align=center;verticalAlign=middle;whiteSpace=wrap;rounded=0;" parent="bkQitDRXs5g6DSLi2g_j-86" vertex="1">
          <mxGeometry x="86" y="260" width="60" height="30" as="geometry" />
        </mxCell>
        <mxCell id="bkQitDRXs5g6DSLi2g_j-88" value="&lt;font size=&quot;1&quot; color=&quot;#cc0000&quot;&gt;&lt;b style=&quot;font-size: 36px;&quot;&gt;(2)&lt;/b&gt;&lt;/font&gt;" style="text;html=1;strokeColor=none;fillColor=none;align=center;verticalAlign=middle;whiteSpace=wrap;rounded=0;" parent="bkQitDRXs5g6DSLi2g_j-86" vertex="1">
          <mxGeometry x="314" y="260" width="60" height="30" as="geometry" />
        </mxCell>
        <mxCell id="bkQitDRXs5g6DSLi2g_j-89" value="&lt;font size=&quot;1&quot; color=&quot;#cc0000&quot;&gt;&lt;b style=&quot;font-size: 36px;&quot;&gt;(3)&lt;/b&gt;&lt;/font&gt;" style="text;html=1;strokeColor=none;fillColor=none;align=center;verticalAlign=middle;whiteSpace=wrap;rounded=0;" parent="bkQitDRXs5g6DSLi2g_j-86" vertex="1">
          <mxGeometry x="76" y="330" width="60" height="30" as="geometry" />
        </mxCell>
        <mxCell id="bkQitDRXs5g6DSLi2g_j-90" value="&lt;font size=&quot;1&quot; color=&quot;#cc0000&quot;&gt;&lt;b style=&quot;font-size: 36px;&quot;&gt;(4)&lt;/b&gt;&lt;/font&gt;" style="text;html=1;strokeColor=none;fillColor=none;align=center;verticalAlign=middle;whiteSpace=wrap;rounded=0;" parent="bkQitDRXs5g6DSLi2g_j-86" vertex="1">
          <mxGeometry x="306" y="330" width="60" height="30" as="geometry" />
        </mxCell>
        <mxCell id="bkQitDRXs5g6DSLi2g_j-91" value="&lt;font size=&quot;1&quot; color=&quot;#cc0000&quot;&gt;&lt;b style=&quot;font-size: 36px;&quot;&gt;(5)&lt;/b&gt;&lt;/font&gt;" style="text;html=1;strokeColor=none;fillColor=none;align=center;verticalAlign=middle;whiteSpace=wrap;rounded=0;" parent="bkQitDRXs5g6DSLi2g_j-86" vertex="1">
          <mxGeometry x="76" y="400" width="60" height="30" as="geometry" />
        </mxCell>
        <mxCell id="bkQitDRXs5g6DSLi2g_j-92" value="&lt;font size=&quot;1&quot; color=&quot;#cc0000&quot;&gt;&lt;b style=&quot;font-size: 36px;&quot;&gt;(6)&lt;/b&gt;&lt;/font&gt;" style="text;html=1;strokeColor=none;fillColor=none;align=center;verticalAlign=middle;whiteSpace=wrap;rounded=0;" parent="bkQitDRXs5g6DSLi2g_j-86" vertex="1">
          <mxGeometry x="306" y="390" width="60" height="30" as="geometry" />
        </mxCell>
        <mxCell id="bkQitDRXs5g6DSLi2g_j-93" value="&lt;font size=&quot;1&quot; color=&quot;#cc0000&quot;&gt;&lt;b style=&quot;font-size: 36px;&quot;&gt;(7)&lt;/b&gt;&lt;/font&gt;" style="text;html=1;strokeColor=none;fillColor=none;align=center;verticalAlign=middle;whiteSpace=wrap;rounded=0;" parent="bkQitDRXs5g6DSLi2g_j-86" vertex="1">
          <mxGeometry x="716" y="380" width="60" height="30" as="geometry" />
        </mxCell>
        <mxCell id="bkQitDRXs5g6DSLi2g_j-94" value="&lt;font size=&quot;1&quot; color=&quot;#cc0000&quot;&gt;&lt;b style=&quot;font-size: 36px;&quot;&gt;(8)&lt;/b&gt;&lt;/font&gt;" style="text;html=1;strokeColor=none;fillColor=none;align=center;verticalAlign=middle;whiteSpace=wrap;rounded=0;" parent="bkQitDRXs5g6DSLi2g_j-86" vertex="1">
          <mxGeometry x="76" y="470" width="60" height="30" as="geometry" />
        </mxCell>
        <mxCell id="bkQitDRXs5g6DSLi2g_j-95" value="&lt;font size=&quot;1&quot; color=&quot;#cc0000&quot;&gt;&lt;b style=&quot;font-size: 36px;&quot;&gt;(9)&lt;/b&gt;&lt;/font&gt;" style="text;html=1;strokeColor=none;fillColor=none;align=center;verticalAlign=middle;whiteSpace=wrap;rounded=0;" parent="bkQitDRXs5g6DSLi2g_j-86" vertex="1">
          <mxGeometry x="306" y="470" width="60" height="30" as="geometry" />
        </mxCell>
        <mxCell id="bkQitDRXs5g6DSLi2g_j-96" value="&lt;font size=&quot;1&quot; color=&quot;#cc0000&quot;&gt;&lt;b style=&quot;font-size: 36px;&quot;&gt;(10)&lt;/b&gt;&lt;/font&gt;" style="text;html=1;strokeColor=none;fillColor=none;align=center;verticalAlign=middle;whiteSpace=wrap;rounded=0;" parent="bkQitDRXs5g6DSLi2g_j-86" vertex="1">
          <mxGeometry x="76" y="540" width="60" height="30" as="geometry" />
        </mxCell>
        <mxCell id="bkQitDRXs5g6DSLi2g_j-97" value="&lt;font size=&quot;1&quot; color=&quot;#cc0000&quot;&gt;&lt;b style=&quot;font-size: 36px;&quot;&gt;(11)&lt;/b&gt;&lt;/font&gt;" style="text;html=1;strokeColor=none;fillColor=none;align=center;verticalAlign=middle;whiteSpace=wrap;rounded=0;" parent="bkQitDRXs5g6DSLi2g_j-86" vertex="1">
          <mxGeometry x="306" y="540" width="60" height="30" as="geometry" />
        </mxCell>
        <mxCell id="bkQitDRXs5g6DSLi2g_j-98" value="&lt;font size=&quot;1&quot; color=&quot;#cc0000&quot;&gt;&lt;b style=&quot;font-size: 36px;&quot;&gt;(12)&lt;/b&gt;&lt;/font&gt;" style="text;html=1;strokeColor=none;fillColor=none;align=center;verticalAlign=middle;whiteSpace=wrap;rounded=0;" parent="bkQitDRXs5g6DSLi2g_j-86" vertex="1">
          <mxGeometry x="75" y="610" width="60" height="30" as="geometry" />
        </mxCell>
        <mxCell id="bkQitDRXs5g6DSLi2g_j-99" value="&lt;font size=&quot;1&quot; color=&quot;#cc0000&quot;&gt;&lt;b style=&quot;font-size: 36px;&quot;&gt;(13)&lt;/b&gt;&lt;/font&gt;" style="text;html=1;strokeColor=none;fillColor=none;align=center;verticalAlign=middle;whiteSpace=wrap;rounded=0;" parent="bkQitDRXs5g6DSLi2g_j-86" vertex="1">
          <mxGeometry x="306" y="603" width="60" height="30" as="geometry" />
        </mxCell>
        <mxCell id="bkQitDRXs5g6DSLi2g_j-100" value="&lt;font size=&quot;1&quot; color=&quot;#cc0000&quot;&gt;&lt;b style=&quot;font-size: 36px;&quot;&gt;(14)&lt;/b&gt;&lt;/font&gt;" style="text;html=1;strokeColor=none;fillColor=none;align=center;verticalAlign=middle;whiteSpace=wrap;rounded=0;" parent="bkQitDRXs5g6DSLi2g_j-86" vertex="1">
          <mxGeometry x="716" y="580" width="60" height="30" as="geometry" />
        </mxCell>
        <mxCell id="bkQitDRXs5g6DSLi2g_j-101" value="&lt;font size=&quot;1&quot; color=&quot;#cc0000&quot;&gt;&lt;b style=&quot;font-size: 36px;&quot;&gt;(15)&lt;/b&gt;&lt;/font&gt;" style="text;html=1;strokeColor=none;fillColor=none;align=center;verticalAlign=middle;whiteSpace=wrap;rounded=0;" parent="bkQitDRXs5g6DSLi2g_j-86" vertex="1">
          <mxGeometry x="46" y="680" width="60" height="30" as="geometry" />
        </mxCell>
        <mxCell id="bkQitDRXs5g6DSLi2g_j-102" value="&lt;font size=&quot;1&quot; color=&quot;#cc0000&quot;&gt;&lt;b style=&quot;font-size: 36px;&quot;&gt;(16)&lt;/b&gt;&lt;/font&gt;" style="text;html=1;strokeColor=none;fillColor=none;align=center;verticalAlign=middle;whiteSpace=wrap;rounded=0;" parent="bkQitDRXs5g6DSLi2g_j-86" vertex="1">
          <mxGeometry x="308" y="682" width="60" height="30" as="geometry" />
        </mxCell>
        <mxCell id="bkQitDRXs5g6DSLi2g_j-103" value="&lt;font size=&quot;1&quot; color=&quot;#cc0000&quot;&gt;&lt;b style=&quot;font-size: 36px;&quot;&gt;(17)&lt;/b&gt;&lt;/font&gt;" style="text;html=1;strokeColor=none;fillColor=none;align=center;verticalAlign=middle;whiteSpace=wrap;rounded=0;" parent="bkQitDRXs5g6DSLi2g_j-86" vertex="1">
          <mxGeometry x="66" y="760" width="60" height="30" as="geometry" />
        </mxCell>
        <mxCell id="bkQitDRXs5g6DSLi2g_j-104" value="&lt;font size=&quot;1&quot; color=&quot;#cc0000&quot;&gt;&lt;b style=&quot;font-size: 36px;&quot;&gt;(18)&lt;/b&gt;&lt;/font&gt;" style="text;html=1;strokeColor=none;fillColor=none;align=center;verticalAlign=middle;whiteSpace=wrap;rounded=0;" parent="bkQitDRXs5g6DSLi2g_j-86" vertex="1">
          <mxGeometry x="306" y="760" width="60" height="30" as="geometry" />
        </mxCell>
        <mxCell id="bkQitDRXs5g6DSLi2g_j-105" value="&lt;font size=&quot;1&quot; color=&quot;#cc0000&quot;&gt;&lt;b style=&quot;font-size: 36px;&quot;&gt;(19)&lt;/b&gt;&lt;/font&gt;" style="text;html=1;strokeColor=none;fillColor=none;align=center;verticalAlign=middle;whiteSpace=wrap;rounded=0;" parent="bkQitDRXs5g6DSLi2g_j-86" vertex="1">
          <mxGeometry x="56" y="830" width="60" height="30" as="geometry" />
        </mxCell>
        <mxCell id="bkQitDRXs5g6DSLi2g_j-106" value="&lt;font size=&quot;1&quot; color=&quot;#cc0000&quot;&gt;&lt;b style=&quot;font-size: 36px;&quot;&gt;(20)&lt;/b&gt;&lt;/font&gt;" style="text;html=1;strokeColor=none;fillColor=none;align=center;verticalAlign=middle;whiteSpace=wrap;rounded=0;" parent="bkQitDRXs5g6DSLi2g_j-86" vertex="1">
          <mxGeometry x="296" y="830" width="60" height="30" as="geometry" />
        </mxCell>
        <mxCell id="bkQitDRXs5g6DSLi2g_j-107" value="&lt;font size=&quot;1&quot; color=&quot;#cc0000&quot;&gt;&lt;b style=&quot;font-size: 36px;&quot;&gt;(21)&lt;/b&gt;&lt;/font&gt;" style="text;html=1;strokeColor=none;fillColor=none;align=center;verticalAlign=middle;whiteSpace=wrap;rounded=0;" parent="bkQitDRXs5g6DSLi2g_j-86" vertex="1">
          <mxGeometry x="56" y="990" width="60" height="30" as="geometry" />
        </mxCell>
        <mxCell id="bkQitDRXs5g6DSLi2g_j-108" value="&lt;font size=&quot;1&quot; color=&quot;#cc0000&quot;&gt;&lt;b style=&quot;font-size: 36px;&quot;&gt;(22)&lt;/b&gt;&lt;/font&gt;" style="text;html=1;strokeColor=none;fillColor=none;align=center;verticalAlign=middle;whiteSpace=wrap;rounded=0;" parent="bkQitDRXs5g6DSLi2g_j-86" vertex="1">
          <mxGeometry x="306" y="990" width="60" height="30" as="geometry" />
        </mxCell>
        <mxCell id="bkQitDRXs5g6DSLi2g_j-109" value="&lt;font size=&quot;1&quot; color=&quot;#cc0000&quot;&gt;&lt;b style=&quot;font-size: 36px;&quot;&gt;(23)&lt;/b&gt;&lt;/font&gt;" style="text;html=1;strokeColor=none;fillColor=none;align=center;verticalAlign=middle;whiteSpace=wrap;rounded=0;" parent="bkQitDRXs5g6DSLi2g_j-86" vertex="1">
          <mxGeometry x="716" y="960" width="60" height="30" as="geometry" />
        </mxCell>
        <mxCell id="bkQitDRXs5g6DSLi2g_j-110" value="&lt;font size=&quot;1&quot; color=&quot;#cc0000&quot;&gt;&lt;b style=&quot;font-size: 36px;&quot;&gt;(24)&lt;/b&gt;&lt;/font&gt;" style="text;html=1;strokeColor=none;fillColor=none;align=center;verticalAlign=middle;whiteSpace=wrap;rounded=0;" parent="bkQitDRXs5g6DSLi2g_j-86" vertex="1">
          <mxGeometry x="56" y="1060" width="60" height="30" as="geometry" />
        </mxCell>
        <mxCell id="bkQitDRXs5g6DSLi2g_j-111" value="&lt;font size=&quot;1&quot; color=&quot;#cc0000&quot;&gt;&lt;b style=&quot;font-size: 36px;&quot;&gt;(25)&lt;/b&gt;&lt;/font&gt;" style="text;html=1;strokeColor=none;fillColor=none;align=center;verticalAlign=middle;whiteSpace=wrap;rounded=0;" parent="bkQitDRXs5g6DSLi2g_j-86" vertex="1">
          <mxGeometry x="310" y="1060" width="60" height="30" as="geometry" />
        </mxCell>
        <mxCell id="bkQitDRXs5g6DSLi2g_j-114" style="edgeStyle=orthogonalEdgeStyle;rounded=0;orthogonalLoop=1;jettySize=auto;html=1;exitX=0.5;exitY=1;exitDx=0;exitDy=0;entryX=0.507;entryY=0.667;entryDx=0;entryDy=0;entryPerimeter=0;" parent="bkQitDRXs5g6DSLi2g_j-86" source="bkQitDRXs5g6DSLi2g_j-90" target="bkQitDRXs5g6DSLi2g_j-90" edge="1">
          <mxGeometry relative="1" as="geometry" />
        </mxCell>
        <mxCell id="bkQitDRXs5g6DSLi2g_j-116" style="edgeStyle=orthogonalEdgeStyle;rounded=0;orthogonalLoop=1;jettySize=auto;html=1;exitX=0.75;exitY=0;exitDx=0;exitDy=0;entryX=0.5;entryY=0;entryDx=0;entryDy=0;" parent="bkQitDRXs5g6DSLi2g_j-86" source="bkQitDRXs5g6DSLi2g_j-97" target="bkQitDRXs5g6DSLi2g_j-97" edge="1">
          <mxGeometry relative="1" as="geometry" />
        </mxCell>
        <mxCell id="iyJBz5RghbY5vBhRCDR4-2" value="&lt;font size=&quot;1&quot; color=&quot;#cc0000&quot;&gt;&lt;b style=&quot;font-size: 36px;&quot;&gt;(26)&lt;/b&gt;&lt;/font&gt;" style="text;html=1;strokeColor=none;fillColor=none;align=center;verticalAlign=middle;whiteSpace=wrap;rounded=0;" parent="bkQitDRXs5g6DSLi2g_j-86" vertex="1">
          <mxGeometry x="476" y="1110" width="60" height="30" as="geometry" />
        </mxCell>
        <mxCell id="iyJBz5RghbY5vBhRCDR4-3" value="&lt;font size=&quot;1&quot; color=&quot;#cc0000&quot;&gt;&lt;b style=&quot;font-size: 36px;&quot;&gt;(27)&lt;/b&gt;&lt;/font&gt;" style="text;html=1;strokeColor=none;fillColor=none;align=center;verticalAlign=middle;whiteSpace=wrap;rounded=0;" parent="bkQitDRXs5g6DSLi2g_j-86" vertex="1">
          <mxGeometry x="907" y="900" width="60" height="30" as="geometry" />
        </mxCell>
        <mxCell id="iyJBz5RghbY5vBhRCDR4-4" value="&lt;font size=&quot;1&quot; color=&quot;#cc0000&quot;&gt;&lt;b style=&quot;font-size: 36px;&quot;&gt;(28)&lt;/b&gt;&lt;/font&gt;" style="text;html=1;strokeColor=none;fillColor=none;align=center;verticalAlign=middle;whiteSpace=wrap;rounded=0;" parent="bkQitDRXs5g6DSLi2g_j-86" vertex="1">
          <mxGeometry x="907" y="960" width="60" height="30" as="geometry" />
        </mxCell>
        <mxCell id="iyJBz5RghbY5vBhRCDR4-5" value="&lt;font size=&quot;1&quot; color=&quot;#cc0000&quot;&gt;&lt;b style=&quot;font-size: 36px;&quot;&gt;(29)&lt;/b&gt;&lt;/font&gt;" style="text;html=1;strokeColor=none;fillColor=none;align=center;verticalAlign=middle;whiteSpace=wrap;rounded=0;" parent="bkQitDRXs5g6DSLi2g_j-86" vertex="1">
          <mxGeometry x="1497" y="1020" width="60" height="30" as="geometry" />
        </mxCell>
        <mxCell id="iyJBz5RghbY5vBhRCDR4-6" value="&lt;font size=&quot;1&quot; color=&quot;#cc0000&quot;&gt;&lt;b style=&quot;font-size: 36px;&quot;&gt;(30)&lt;/b&gt;&lt;/font&gt;" style="text;html=1;strokeColor=none;fillColor=none;align=center;verticalAlign=middle;whiteSpace=wrap;rounded=0;" parent="bkQitDRXs5g6DSLi2g_j-86" vertex="1">
          <mxGeometry x="1367" y="440" width="60" height="30" as="geometry" />
        </mxCell>
      </root>
    </mxGraphModel>
  </diagram>
</mxfile>
